# xmcd
#
# Track frame offsets: 
#        150
#        17765
#        30444
#        48882
#        59160
#        74882
#        89042
#        102695
#        116379
#        128775
#        141340
#        156245
#        169312
#        184102
#        196805
#        209195
#        221845
#        234142
#        249970
#        264595
#        279082
#
# Disc length: 3901 seconds
#
# Revision: 0
# Processed by: cddbd v1.5PL3 Copyright (c) Steve Scherf et al.
# Submitted via: ExactAudioCopy v0.90b4
#
DISCID=440f3b15
DTITLE=The Kendalls - Best Of Country Gospel
DYEAR=2004
DGENRE=Gospel
TTITLE0=The Wayfaring Stranger
TTITLE1=Are You Washed In The Blood
TTITLE2=How Great Thou Art
TTITLE3=Let's All Go Down To The River
TTITLE4=The Old Rugged Cross
TTITLE5=Satisfied
TTITLE6=Oh Come Angel Band
TTITLE7=Do Lord
TTITLE8=He's Always As Close As Your Shadow
TTITLE9=Just A Little Talk With Jesus
TTITLE10=Amazing Grace
TTITLE11=I've Got A Piece Of The Old Rugged Cross
TTITLE12=Life's Railway To Heaven
TTITLE13=Why Me Lord
TTITLE14=One Way Or The Other
TTITLE15=Let's Hold Hands
TTITLE16=Where The Soul Of Man Never Dies
TTITLE17=Sweet Hour Of Prayer
TTITLE18=This World Is Not My Home
TTITLE19=Where Could I Go But To The Lord
TTITLE20=I Saw The Light
EXTD=
EXTT0=
EXTT1=
EXTT2=
EXTT3=
EXTT4=
EXTT5=
EXTT6=
EXTT7=
EXTT8=
EXTT9=
EXTT10=
EXTT11=
EXTT12=
EXTT13=
EXTT14=
EXTT15=
EXTT16=
EXTT17=
EXTT18=
EXTT19=
EXTT20=
PLAYORDER=
